<svg width="64" height="64" viewBox="0 0 64 64" fill="none" xmlns="http://www.w3.org/2000/svg">
<path d="M53.4125 18.0375L39.9625 4.5875C39.5875 4.2125 39.0812 4 38.55 4H12C10.8937 4 10 4.89375 10 6V58C10 59.1063 10.8937 60 12 60H52C53.1063 60 54 59.1063 54 58V19.4562C54 18.925 53.7875 18.4125 53.4125 18.0375ZM49.3875 20.375H37.625V8.6125L49.3875 20.375ZM49.5 55.5H14.5V8.5H33.375V22C33.375 22.6962 33.6516 23.3639 34.1438 23.8562C34.6361 24.3484 35.3038 24.625 36 24.625H49.5V55.5Z" fill="#605E5C"/>
</svg>
