<svg width="64" height="60" viewBox="0 0 64 60" fill="none" xmlns="http://www.w3.org/2000/svg">
<path d="M2.1593 15.48L1.9993 12C1.9993 9.87827 2.84215 7.84344 4.34244 6.34315C5.84273 4.84285 7.87756 4 9.9993 4H24.6873C26.8089 4.00045 28.8434 4.8436 30.3433 6.344L33.6553 9.656C35.1552 11.1564 37.1897 11.9995 39.3113 12H55.2393C56.351 11.9999 57.4505 12.2315 58.4677 12.68C59.4849 13.1285 60.3974 13.784 61.1471 14.6049C61.8968 15.4257 62.4672 16.3938 62.8219 17.4474C63.1767 18.5009 63.3079 19.6169 63.2073 20.724L60.6593 48.724C60.4787 50.7117 59.5616 52.56 58.0881 53.9062C56.6146 55.2524 54.6911 55.9992 52.6953 56H11.3033C9.30745 55.9992 7.38397 55.2524 5.91048 53.9062C4.43699 52.56 3.51992 50.7117 3.3393 48.724L0.791296 20.724C0.620841 18.8711 1.10487 17.0171 2.1593 15.484V15.48ZM8.7593 16C8.20364 16 7.65407 16.1157 7.14562 16.3398C6.63717 16.564 6.181 16.8916 5.80618 17.3018C5.43135 17.712 5.14611 18.1958 4.96862 18.7223C4.79113 19.2488 4.72529 19.8066 4.7753 20.36L7.3233 48.36C7.41311 49.3538 7.87115 50.2782 8.60752 50.9517C9.34389 51.6252 10.3054 51.9991 11.3033 52H52.6953C53.6932 51.9991 54.6547 51.6252 55.3911 50.9517C56.1274 50.2782 56.5855 49.3538 56.6753 48.36L59.2233 20.36C59.2733 19.8066 59.2075 19.2488 59.03 18.7223C58.8525 18.1958 58.5672 17.712 58.1924 17.3018C57.8176 16.8916 57.3614 16.564 56.853 16.3398C56.3445 16.1157 55.795 16 55.2393 16H8.7593ZM27.5193 9.172C27.1475 8.80006 26.706 8.5051 26.22 8.304C25.7341 8.10289 25.2132 7.99959 24.6873 8H9.9993C8.95147 7.99981 7.9454 8.41079 7.1974 9.14458C6.4494 9.87836 6.0192 10.8764 5.9993 11.924L6.0233 12.48C6.8793 12.168 7.7993 12 8.7593 12H30.3433L27.5153 9.172H27.5193Z" fill="#0078D4"/>
</svg>
