<svg width="24" height="24" viewBox="0 0 24 24" fill="none" xmlns="http://www.w3.org/2000/svg">
<rect x="0.4" y="0.4" width="23.2" height="23.2" rx="11.6" fill="#F9F7F7"/>
<path d="M12.9602 8.15981C12.9602 7.90521 12.8591 7.66103 12.679 7.48099C12.499 7.30096 12.2548 7.19981 12.0002 7.19981C11.7456 7.19981 11.5014 7.30096 11.3214 7.48099C11.1413 7.66103 11.0402 7.90521 11.0402 8.15981H10.4002C10.4002 7.73547 10.5688 7.3285 10.8688 7.02844C11.1689 6.72839 11.5758 6.55981 12.0002 6.55981C12.4245 6.55981 12.8315 6.72839 13.1316 7.02844C13.4316 7.3285 13.6002 7.73547 13.6002 8.15981H16.4802C16.5651 8.15981 16.6465 8.19353 16.7065 8.25354C16.7665 8.31355 16.8002 8.39495 16.8002 8.47981C16.8002 8.56468 16.7665 8.64608 16.7065 8.70609C16.6465 8.7661 16.5651 8.79981 16.4802 8.79981H16.1256L15.2962 15.987C15.2601 16.2989 15.1106 16.5867 14.8761 16.7956C14.6416 17.0045 14.3385 17.1199 14.0245 17.1198H9.97588C9.66186 17.1199 9.35878 17.0045 9.1243 16.7956C8.88982 16.5867 8.74031 16.2989 8.7042 15.987L7.87412 8.79981H7.5202C7.4453 8.79984 7.37277 8.77359 7.31523 8.72565C7.25769 8.6777 7.2188 8.61109 7.20532 8.53741L7.2002 8.47981C7.2002 8.39495 7.23391 8.31355 7.29392 8.25354C7.35393 8.19353 7.43533 8.15981 7.5202 8.15981H12.9602ZM15.4805 8.79981H8.51924L9.33972 15.9134C9.35778 16.0694 9.43258 16.2134 9.54989 16.3178C9.6672 16.4223 9.81881 16.4799 9.97588 16.4798H14.0245C14.1815 16.4798 14.3329 16.422 14.4501 16.3176C14.5673 16.2132 14.642 16.0693 14.66 15.9134L15.4805 8.79981ZM11.0402 10.3998C11.197 10.3998 11.3282 10.499 11.3551 10.6296L11.3602 10.6801V14.6001C11.3602 14.7544 11.2168 14.8798 11.0402 14.8798C10.8834 14.8798 10.7522 14.7806 10.7253 14.6501L10.7202 14.5995V10.6808C10.7202 10.5259 10.8636 10.4005 11.0402 10.4005V10.3998ZM12.9602 10.3998C13.117 10.3998 13.2482 10.499 13.2751 10.6296L13.2802 10.6801V14.6001C13.2802 14.7544 13.1368 14.8798 12.9602 14.8798C12.8034 14.8798 12.6722 14.7806 12.6453 14.6501L12.6402 14.5995V10.6808C12.6402 10.5259 12.7836 10.4005 12.9602 10.4005V10.3998Z" fill="#0078D4"/>
<rect x="0.4" y="0.4" width="23.2" height="23.2" rx="11.6" stroke="#54B5FF" stroke-width="0.8"/>
</svg>
