<svg width="18" height="21" viewBox="0 0 18 21" fill="none" xmlns="http://www.w3.org/2000/svg">
<path d="M10.8 3.80005C10.8 3.32266 10.6104 2.86482 10.2728 2.52726C9.93523 2.18969 9.47739 2.00005 9 2.00005C8.52261 2.00005 8.06477 2.18969 7.72721 2.52726C7.38964 2.86482 7.2 3.32266 7.2 3.80005H6C6 3.0044 6.31607 2.24134 6.87868 1.67873C7.44129 1.11612 8.20435 0.800049 9 0.800049C9.79565 0.800049 10.5587 1.11612 11.1213 1.67873C11.6839 2.24134 12 3.0044 12 3.80005H17.4C17.5591 3.80005 17.7117 3.86326 17.8243 3.97578C17.9368 4.08831 18 4.24092 18 4.40005C18 4.55918 17.9368 4.71179 17.8243 4.82431C17.7117 4.93683 17.5591 5.00005 17.4 5.00005H16.7352L15.18 18.476C15.1123 19.0609 14.8319 19.6005 14.3923 19.9921C13.9527 20.3838 13.3844 20.6001 12.7956 20.6H5.2044C4.61562 20.6001 4.04735 20.3838 3.6077 19.9921C3.16806 19.6005 2.88771 19.0609 2.82 18.476L1.2636 5.00005H0.6C0.459569 5.0001 0.323571 4.95088 0.215689 4.86098C0.107808 4.77108 0.0348774 4.64619 0.00959988 4.50805L0 4.40005C0 4.24092 0.0632142 4.08831 0.175736 3.97578C0.288258 3.86326 0.44087 3.80005 0.6 3.80005H10.8ZM15.5256 5.00005H2.4732L4.0116 18.338C4.04547 18.6306 4.18573 18.9005 4.40567 19.0963C4.62562 19.2921 4.90991 19.4002 5.2044 19.4H12.7956C13.0899 19.3999 13.3739 19.2917 13.5936 19.0959C13.8133 18.9001 13.9534 18.6304 13.9872 18.338L15.5256 5.00005ZM7.2 8.00005C7.494 8.00005 7.74 8.18605 7.7904 8.43085L7.8 8.52565V15.8756C7.8 16.1648 7.5312 16.4 7.2 16.4C6.906 16.4 6.66 16.214 6.6096 15.9692L6.6 15.8744V8.52685C6.6 8.23645 6.8688 8.00125 7.2 8.00125V8.00005ZM10.8 8.00005C11.094 8.00005 11.34 8.18605 11.3904 8.43085L11.4 8.52565V15.8756C11.4 16.1648 11.1312 16.4 10.8 16.4C10.506 16.4 10.26 16.214 10.2096 15.9692L10.2 15.8744V8.52685C10.2 8.23645 10.4688 8.00125 10.8 8.00125V8.00005Z" fill="#0078D4"/>
</svg>
