<svg width="64" height="64" viewBox="0 0 64 64" fill="none" xmlns="http://www.w3.org/2000/svg">
<path d="M57.6124 6H19.4104C19.0973 5.99974 18.7873 6.06114 18.4979 6.18071C18.2086 6.30027 17.9456 6.47566 17.7241 6.69685C17.5025 6.91804 17.3267 7.1807 17.2066 7.46984C17.0866 7.75898 17.0247 8.06893 17.0244 8.382V19L39.1624 25.5L60.0004 19V8.382C60.0001 8.06876 59.9382 7.75865 59.818 7.46938C59.6978 7.18011 59.5218 6.91735 59.3 6.69614C59.0783 6.47492 58.8151 6.29958 58.5255 6.18013C58.2359 6.06069 57.9257 5.99948 57.6124 6Z" fill="#41A5EE"/>
<path d="M60.0004 19H17.0244V32L39.1624 35.9L60.0004 32V19Z" fill="#2B7CD3"/>
<path d="M17.0244 32V45L37.8604 47.6L60.0004 45V32H17.0244Z" fill="#185ABD"/>
<path d="M19.4104 58H57.6104C57.9238 58.0008 58.2343 57.9398 58.5241 57.8204C58.8139 57.7011 59.0773 57.5258 59.2993 57.3046C59.5213 57.0833 59.6975 56.8205 59.8178 56.5311C59.9381 56.2417 60.0001 55.9314 60.0004 55.618V45H17.0244V55.618C17.0247 55.9311 17.0866 56.241 17.2066 56.5302C17.3267 56.8193 17.5025 57.082 17.7241 57.3032C17.9456 57.5243 18.2086 57.6997 18.4979 57.8193C18.7873 57.9389 19.0973 58.0003 19.4104 58Z" fill="#103F91"/>
<path opacity="0.1" d="M32.8684 16.3999H17.0244V48.8999H32.8684C33.4997 48.8968 34.1044 48.645 34.5514 48.1991C34.9984 47.7533 35.2517 47.1492 35.2564 46.5179V18.7819C35.2517 18.1506 34.9984 17.5465 34.5514 17.1007C34.1044 16.6548 33.4997 16.403 32.8684 16.3999Z" fill="black"/>
<path opacity="0.2" d="M31.5664 17.7002H17.0244V50.2002H31.5664C32.1977 50.1971 32.8024 49.9453 33.2494 49.4994C33.6964 49.0535 33.9497 48.4495 33.9544 47.8182V20.0822C33.9497 19.4509 33.6964 18.8468 33.2494 18.401C32.8024 17.9551 32.1977 17.7033 31.5664 17.7002Z" fill="black"/>
<path opacity="0.2" d="M31.5664 17.7002H17.0244V47.6002H31.5664C32.1977 47.5971 32.8024 47.3453 33.2494 46.8994C33.6964 46.4536 33.9497 45.8495 33.9544 45.2182V20.0822C33.9497 19.4509 33.6964 18.8468 33.2494 18.401C32.8024 17.9551 32.1977 17.7033 31.5664 17.7002Z" fill="black"/>
<path opacity="0.2" d="M30.2644 17.7002H17.0244V47.6002H30.2644C30.8957 47.5971 31.5004 47.3453 31.9474 46.8994C32.3944 46.4536 32.6477 45.8495 32.6524 45.2182V20.0822C32.6477 19.4509 32.3944 18.8468 31.9474 18.401C31.5004 17.9551 30.8957 17.7033 30.2644 17.7002Z" fill="black"/>
<path d="M6.388 17.7002H30.264C30.8965 17.6997 31.5033 17.9503 31.951 18.3969C32.3988 18.8436 32.6509 19.4497 32.652 20.0822V43.9182C32.6509 44.5507 32.3988 45.1568 31.951 45.6035C31.5033 46.0501 30.8965 46.3007 30.264 46.3002H6.388C6.07476 46.3007 5.76449 46.2395 5.47492 46.1201C5.18534 46.0006 4.92215 45.8253 4.70038 45.6041C4.47861 45.3828 4.3026 45.1201 4.18243 44.8308C4.06225 44.5416 4.00026 44.2314 4 43.9182V20.0822C4.00026 19.769 4.06225 19.4588 4.18243 19.1696C4.3026 18.8803 4.47861 18.6175 4.70038 18.3963C4.92215 18.1751 5.18534 17.9998 5.47492 17.8803C5.76449 17.7609 6.07476 17.6997 6.388 17.7002Z" fill="url(#paint0_linear)"/>
<path d="M13.7999 35.9762C13.8459 36.3442 13.8779 36.6642 13.8919 36.9382H13.9479C13.9679 36.6782 14.0119 36.3642 14.0779 35.9982C14.1439 35.6322 14.2019 35.3222 14.2559 35.0682L16.7659 24.2542H20.0139L22.6139 34.9062C22.7653 35.5651 22.8736 36.2332 22.9379 36.9062H22.9819C23.0297 36.2511 23.1198 35.5997 23.2519 34.9562L25.3299 24.2402H28.2839L24.6359 39.7362H21.1819L18.7079 29.4842C18.6359 29.1882 18.5546 28.8029 18.4639 28.3282C18.3732 27.8536 18.3172 27.5069 18.2959 27.2882H18.2539C18.2259 27.5402 18.1699 27.9142 18.0859 28.4102C18.0019 28.9082 17.9359 29.2742 17.8859 29.5142L15.5599 39.7422H12.0479L8.37988 24.2542H11.3799L13.6419 35.0902C13.7094 35.3827 13.7621 35.6784 13.7999 35.9762Z" fill="white"/>
<defs>
<linearGradient id="paint0_linear" x1="8.988" y1="15.8282" x2="27.664" y2="48.1722" gradientUnits="userSpaceOnUse">
<stop stop-color="#2368C4"/>
<stop offset="0.5" stop-color="#1A5DBE"/>
<stop offset="1" stop-color="#1146AC"/>
</linearGradient>
</defs>
</svg>
