<svg width="24" height="24" viewBox="0 0 24 24" fill="none" xmlns="http://www.w3.org/2000/svg">
<rect x="0.4" y="0.4" width="23.2" height="23.2" rx="11.6" fill="#F6F6F6"/>
<path d="M16.6225 16.6221H7.37802C7.28372 16.6221 7.19328 16.6596 7.1266 16.7263C7.05992 16.793 7.02246 16.8834 7.02246 16.9777C7.02246 17.072 7.05992 17.1624 7.1266 17.2291C7.19328 17.2958 7.28372 17.3332 7.37802 17.3332H16.6225C16.7168 17.3332 16.8072 17.2958 16.8739 17.2291C16.9406 17.1624 16.978 17.072 16.978 16.9777C16.978 16.8834 16.9406 16.793 16.8739 16.7263C16.8072 16.6596 16.7168 16.6221 16.6225 16.6221Z" fill="#0078D4"/>
<path d="M12.0001 16.0817L15.7726 12.3093C15.8308 12.2412 15.8612 12.1538 15.8578 12.0643C15.8543 11.9748 15.8172 11.8899 15.7539 11.8266C15.6906 11.7633 15.6057 11.7262 15.5162 11.7227C15.4267 11.7192 15.3392 11.7497 15.2712 11.8079L12.3557 14.7199V7.37771C12.3557 7.28341 12.3182 7.19298 12.2515 7.1263C12.1848 7.05962 12.0944 7.02216 12.0001 7.02216C11.9058 7.02216 11.8154 7.05962 11.7487 7.1263C11.682 7.19298 11.6445 7.28341 11.6445 7.37771V14.7199L8.73255 11.8079C8.70067 11.7707 8.66145 11.7405 8.61734 11.7191C8.57323 11.6978 8.52518 11.6858 8.47621 11.6839C8.42725 11.682 8.37842 11.6903 8.33279 11.7082C8.28716 11.726 8.24572 11.7531 8.21107 11.7878C8.17642 11.8224 8.14931 11.8639 8.13143 11.9095C8.11356 11.9551 8.10531 12.004 8.1072 12.0529C8.10909 12.1019 8.12108 12.1499 8.14242 12.1941C8.16377 12.2382 8.194 12.2774 8.23122 12.3093L12.0001 16.0817Z" fill="#0078D4"/>
<rect x="0.4" y="0.4" width="23.2" height="23.2" rx="11.6" stroke="#54B5FF" stroke-width="0.8"/>
</svg>
