<svg width="24" height="24" viewBox="0 0 24 24" fill="none" xmlns="http://www.w3.org/2000/svg">
<path d="M20.6665 20.6667H3.33317C3.15636 20.6667 2.98679 20.737 2.86177 20.862C2.73674 20.987 2.6665 21.1566 2.6665 21.3334C2.6665 21.5102 2.73674 21.6798 2.86177 21.8048C2.98679 21.9298 3.15636 22.0001 3.33317 22.0001H20.6665C20.8433 22.0001 21.0129 21.9298 21.1379 21.8048C21.2629 21.6798 21.3332 21.5102 21.3332 21.3334C21.3332 21.1566 21.2629 20.987 21.1379 20.862C21.0129 20.737 20.8433 20.6667 20.6665 20.6667Z" fill="#0078D4"/>
<path d="M11.9999 19.6534L19.0732 12.5801C19.1824 12.4525 19.2395 12.2885 19.233 12.1207C19.2266 11.9529 19.157 11.7938 19.0383 11.675C18.9195 11.5563 18.7604 11.4868 18.5926 11.4803C18.4248 11.4738 18.2608 11.5309 18.1332 11.6401L12.6666 17.1001V3.33341C12.6666 3.1566 12.5963 2.98703 12.4713 2.86201C12.3463 2.73699 12.1767 2.66675 11.9999 2.66675C11.8231 2.66675 11.6535 2.73699 11.5285 2.86201C11.4035 2.98703 11.3332 3.1566 11.3332 3.33341V17.1001L5.87322 11.6401C5.81346 11.5703 5.73991 11.5136 5.6572 11.4736C5.5745 11.4336 5.48441 11.4111 5.39259 11.4076C5.30078 11.404 5.20923 11.4195 5.12368 11.453C5.03813 11.4865 4.96043 11.5373 4.89546 11.6023C4.83049 11.6673 4.77965 11.745 4.74613 11.8305C4.71262 11.9161 4.69715 12.0076 4.70069 12.0995C4.70424 12.1913 4.72673 12.2814 4.76674 12.3641C4.80676 12.4468 4.86344 12.5203 4.93322 12.5801L11.9999 19.6534Z" fill="#0078D4"/>
</svg>
