<svg width="24" height="24" viewBox="0 0 24 24" fill="none" xmlns="http://www.w3.org/2000/svg">
<rect x="0.4" y="0.4" width="23.2" height="23.2" rx="11.6" fill="#F9F7F7"/>
<path d="M15.2249 7C15.5889 6.99969 15.9494 7.07207 16.2851 7.21287C16.6208 7.35368 16.925 7.56009 17.1799 7.82C17.7051 8.35319 17.9995 9.07158 17.9995 9.82C17.9995 10.5684 17.7051 11.2868 17.1799 11.82L11.9999 17.065L6.81989 11.82C6.29468 11.2868 6.00028 10.5684 6.00028 9.82C6.00028 9.07158 6.29468 8.35319 6.81989 7.82C7.07493 7.56028 7.37918 7.35398 7.71484 7.21315C8.05051 7.07232 8.41087 6.99979 8.77489 6.99979C9.1389 6.99979 9.49926 7.07232 9.83493 7.21315C10.1706 7.35398 10.4748 7.56028 10.7299 7.82L11.9999 9.12L13.2649 7.83C13.519 7.56699 13.8236 7.35793 14.1603 7.21532C14.4971 7.07271 14.8592 6.99948 15.2249 7ZM15.2249 6C14.7277 5.99958 14.2354 6.09843 13.7769 6.29075C13.3185 6.48308 12.903 6.765 12.5549 7.12L11.9999 7.68L11.4449 7.12C11.0964 6.76564 10.6808 6.48421 10.2224 6.2921C9.76398 6.09999 9.27192 6.00105 8.77489 6.00105C8.27786 6.00105 7.7858 6.09999 7.32739 6.2921C6.86899 6.48421 6.45341 6.76564 6.10489 7.12C5.39583 7.84181 4.99854 8.81318 4.99854 9.825C4.99854 10.8368 5.39583 11.8082 6.10489 12.53L11.9999 18.5L17.8949 12.53C18.6039 11.8082 19.0012 10.8368 19.0012 9.825C19.0012 8.81318 18.6039 7.84181 17.8949 7.12C17.5464 6.76545 17.1309 6.48382 16.6725 6.29153C16.2141 6.09924 15.722 6.00014 15.2249 6Z" fill="#0078D4"/>
<rect x="0.4" y="0.4" width="23.2" height="23.2" rx="11.6" stroke="#54B5FF" stroke-width="0.8"/>
</svg>
