<svg width="80" height="80" viewBox="0 0 80 80" fill="none" xmlns="http://www.w3.org/2000/svg">
<path d="M40 20L34.344 14.344C32.8441 12.8436 30.8096 12.0005 28.688 12H8C6.93913 12 5.92172 12.4214 5.17157 13.1716C4.42143 13.9217 4 14.9391 4 16V64C4 65.0609 4.42143 66.0783 5.17157 66.8284C5.92172 67.5786 6.93913 68 8 68H72C73.0609 68 74.0783 67.5786 74.8284 66.8284C75.5786 66.0783 76 65.0609 76 64V24C76 22.9391 75.5786 21.9217 74.8284 21.1716C74.0783 20.4214 73.0609 20 72 20H40Z" fill="#FFB900"/>
<rect x="7" y="22" width="33" height="7" fill="white"/>
<path d="M40 20L34.344 25.656C32.8441 27.1564 30.8096 27.9995 28.688 28H4V64C4 65.0609 4.42143 66.0783 5.17157 66.8284C5.92172 67.5786 6.93913 68 8 68H72C73.0609 68 74.0783 67.5786 74.8284 66.8284C75.5786 66.0783 76 65.0609 76 64V24C76 22.9391 75.5786 21.9217 74.8284 21.1716C74.0783 20.4214 73.0609 20 72 20H40Z" fill="#FFD75E"/>
<path d="M40 20L34.344 25.656C32.8441 27.1564 30.8096 27.9995 28.688 28H4V64C4 65.0609 4.42143 66.0783 5.17157 66.8284C5.92172 67.5786 6.93913 68 8 68H72C73.0609 68 74.0783 67.5786 74.8284 66.8284C75.5786 66.0783 76 65.0609 76 64V24C76 22.9391 75.5786 21.9217 74.8284 21.1716C74.0783 20.4214 73.0609 20 72 20H40Z" fill="url(#paint0_linear)"/>
<path d="M8.00089 66.0002C6.50889 66.0002 5.16089 65.4322 4.10889 64.5322C4.22632 65.4841 4.68593 66.3608 5.40201 66.9989C6.1181 67.637 7.04179 67.9929 8.00089 68.0002H72.0009C74.0209 68.0002 75.6209 66.4802 75.8929 64.5322C74.8449 65.4362 73.4929 66.0002 72.0009 66.0002H8.00089Z" fill="#E67628"/>
<path opacity="0.4" d="M35.344 27.656L43 20H40L34.344 25.656C32.8441 27.1564 30.8096 27.9995 28.688 28H4V30H29.688C31.8096 29.9995 33.8441 29.1564 35.344 27.656Z" fill="white"/>
<defs>
<linearGradient id="paint0_linear" x1="40" y1="20" x2="40" y2="68" gradientUnits="userSpaceOnUse">
<stop stop-color="white" stop-opacity="0"/>
<stop offset="0.999" stop-color="#FFD75E" stop-opacity="0.3"/>
</linearGradient>
</defs>
</svg>
