<svg width="24" height="24" viewBox="0 0 24 24" fill="none" xmlns="http://www.w3.org/2000/svg">
<rect x="0.4" y="0.4" width="23.2" height="23.2" rx="11.6" fill="#F9F7F7"/>
<path d="M12.8001 10.7999L12.2361 11.3639L13.2681 12.3999H9.6001V13.1999H13.2681L12.2361 14.2359L12.8001 14.7999L14.8001 12.7999L12.8001 10.7999Z" fill="#0078D4"/>
<path d="M10.0687 7.99989L11.4343 9.36549L11.6687 9.59989H16.7999V15.9999H7.1999V7.99989H10.0687ZM10.0687 7.19989H7.1999C6.98773 7.19989 6.78425 7.28418 6.63422 7.4342C6.48419 7.58423 6.3999 7.78772 6.3999 7.99989V15.9999C6.3999 16.2121 6.48419 16.4155 6.63422 16.5656C6.78425 16.7156 6.98773 16.7999 7.1999 16.7999H16.7999C17.0121 16.7999 17.2156 16.7156 17.3656 16.5656C17.5156 16.4155 17.5999 16.2121 17.5999 15.9999V9.59989C17.5999 9.38772 17.5156 9.18423 17.3656 9.0342C17.2156 8.88418 17.0121 8.79989 16.7999 8.79989H11.9999L10.6343 7.43429C10.4843 7.28425 10.2809 7.19994 10.0687 7.19989Z" fill="#0078D4"/>
<rect x="0.4" y="0.4" width="23.2" height="23.2" rx="11.6" stroke="#54B5FF" stroke-width="0.8"/>
</svg>
