<svg width="64" height="64" viewBox="0 0 64 64" fill="none" xmlns="http://www.w3.org/2000/svg">
<path d="M18.1279 6.32422H41.3279C47.1643 10.4578 52.2532 15.5562 56.3759 21.4002V57.0842H18.1279V6.32422Z" fill="url(#paint0_linear)"/>
<path d="M18.1279 6.32422H41.3279C47.1643 10.4578 52.2532 15.5562 56.3759 21.4002V57.0842H18.1279V6.32422Z" stroke="#C8C8C8" stroke-width="0.5"/>
<path d="M41.3242 6.32422C47.1533 10.4677 52.242 15.5645 56.3762 21.4002C55.0017 19.9876 53.3352 18.8923 51.4932 18.191C49.6511 17.4897 47.6782 17.1994 45.7122 17.3402C45.9926 15.2815 45.7359 13.1853 44.967 11.2551C44.1981 9.32493 42.9433 7.62632 41.3242 6.32422V6.32422Z" fill="url(#paint1_linear)"/>
<path d="M41.3242 6.32422C47.1533 10.4677 52.242 15.5645 56.3762 21.4002C55.0017 19.9876 53.3352 18.8923 51.4932 18.191C49.6511 17.4897 47.6782 17.1994 45.7122 17.3402C45.9926 15.2815 45.7359 13.1853 44.967 11.2551C44.1981 9.32493 42.9433 7.62632 41.3242 6.32422V6.32422Z" stroke="#C8C8C8" stroke-width="0.5"/>
<path d="M10.6777 12.9922H38.8777V18.3922H10.6777V12.9922Z" stroke="#C8C8C8" stroke-width="4"/>
<path d="M31.6376 39.71C32.5696 37.882 33.6376 35.824 34.4776 33.756L34.8136 32.94C33.7056 28.724 33.0416 25.34 33.6356 23.152C33.7602 22.8574 33.9751 22.6099 34.2493 22.4453C34.5236 22.2807 34.843 22.2074 35.1616 22.236H35.6696C36.6376 22.222 37.0916 23.452 37.1436 23.93C37.151 24.6544 37.0561 25.3762 36.8616 26.074C36.9092 25.3321 36.7994 24.5886 36.5396 23.892C36.1396 23.014 35.7576 22.492 35.4156 22.406C35.2939 22.5046 35.1951 22.6285 35.126 22.769C35.057 22.9096 35.0193 23.0635 35.0156 23.22C34.9141 23.8409 34.8626 24.4689 34.8616 25.098C34.9089 26.9476 35.2 28.7827 35.7276 30.556C35.8356 30.244 35.9276 29.944 36.0076 29.662C36.1256 29.218 36.8736 26.28 36.8736 26.28C36.8736 26.28 36.6856 30.192 36.4216 31.374C36.3656 31.624 36.3036 31.872 36.2376 32.124C37.1232 34.6631 38.5926 36.9588 40.5276 38.826C41.2877 39.4854 42.1196 40.057 43.0076 40.53C44.6739 40.2787 46.3566 40.1524 48.0416 40.152C49.3932 40.0157 50.7526 40.3194 51.9176 41.018C52.1743 41.277 52.3261 41.6218 52.3436 41.986C52.3349 42.1763 52.3075 42.3652 52.2616 42.55C52.2816 42.448 52.2816 41.95 50.7516 41.458C48.715 41.0706 46.6263 41.0415 44.5796 41.372C47.7116 42.904 50.7656 43.666 51.7316 43.21C51.9356 43.0738 52.1131 42.9016 52.2556 42.702C52.1885 43.0331 52.0907 43.3571 51.9636 43.67C51.7708 43.9149 51.5077 44.095 51.2096 44.186C49.6816 44.586 45.7056 43.65 42.2396 41.67C38.3265 42.2707 34.4685 43.1877 30.7036 44.412C27.3536 50.284 24.8336 52.98 22.7856 51.954L22.0316 51.576C21.8942 51.4652 21.7936 51.3152 21.7432 51.1459C21.6929 50.9766 21.6951 50.796 21.7496 50.628C21.9876 49.46 23.4536 47.698 26.3976 45.94C26.7136 45.74 28.1256 45.002 28.1256 45.002C28.1256 45.002 27.0796 46.014 26.8356 46.212C24.4856 48.138 22.7516 50.56 22.7936 51.5V51.582C24.7936 51.298 27.7836 47.234 31.6316 39.704L31.6376 39.71ZM32.8516 40.328C32.2482 41.4569 31.6308 42.5784 30.9996 43.692C34.2081 42.4062 37.5432 41.4623 40.9496 40.876C40.5096 40.5735 40.0844 40.2497 39.6756 39.906C37.9192 38.3911 36.4901 36.534 35.4756 34.448C34.7338 36.4663 33.8537 38.4309 32.8416 40.328" fill="#F91D0A"/>
<path d="M7.5 9.93604H42.028V21.542H7.5V9.93604Z" fill="url(#paint2_linear)"/>
<path d="M42.686 22.2382H6.87402V9.24023H42.686V22.2382ZM41.4 10.5282H8.16202V20.9462H41.4V10.5282Z" fill="url(#paint3_linear)"/>
<path d="M16.5244 11.6378H19.0364C19.3536 11.6175 19.6714 11.6662 19.968 11.7804C20.2646 11.8947 20.5329 12.0719 20.7544 12.2998C21.1852 12.8256 21.3997 13.4956 21.3544 14.1738C21.3996 14.855 21.1853 15.5282 20.7544 16.0578C20.5323 16.2846 20.2638 16.4607 19.9672 16.5739C19.6707 16.6871 19.3531 16.7349 19.0364 16.7138H18.0364V19.4118H16.5244V11.6378ZM18.0384 13.0898V15.2618H18.8764C19.0037 15.2691 19.1309 15.2475 19.2487 15.1986C19.3664 15.1498 19.4716 15.075 19.5564 14.9798C19.7279 14.7496 19.8129 14.4664 19.7964 14.1798C19.8148 13.893 19.7296 13.6091 19.5564 13.3798C19.4717 13.2845 19.3666 13.2096 19.2488 13.1607C19.131 13.1119 19.0037 13.0904 18.8764 13.0978H18.0384V13.0898ZM23.9364 13.1598V17.8978H24.4784C24.7449 17.9156 25.0119 17.8706 25.2579 17.7664C25.5038 17.6622 25.7218 17.5017 25.8944 17.2978C26.2554 16.7811 26.429 16.1566 26.3864 15.5278C26.429 14.9027 26.2568 14.2817 25.8984 13.7678C25.7249 13.564 25.5061 13.4035 25.2596 13.2994C25.013 13.1952 24.7455 13.1501 24.4784 13.1678H23.9364V13.1598ZM22.4224 11.6518H24.0224C24.6908 11.6177 25.36 11.6996 26.0004 11.8938C26.4476 12.0678 26.837 12.3636 27.1244 12.7478C27.4053 13.1092 27.6137 13.5214 27.7384 13.9618C27.8784 14.4691 27.9457 14.9936 27.9384 15.5198C27.9458 16.0506 27.8784 16.5798 27.7384 17.0918C27.6137 17.5322 27.4053 17.9444 27.1244 18.3058C26.8333 18.6911 26.4416 18.9887 25.9924 19.1658C25.3506 19.3606 24.6805 19.4451 24.0104 19.4158H22.4104V11.6378L22.4224 11.6518ZM29.0944 11.6378H33.2004V13.1538H30.6204V14.5998H33.0384V16.1158H30.6204V19.4118H29.1064V11.6378" fill="#FFF9F9"/>
<defs>
<linearGradient id="paint0_linear" x1="29.2935" y1="46.0874" x2="43.4416" y2="20.5169" gradientUnits="userSpaceOnUse">
<stop stop-color="white"/>
<stop offset="1" stop-color="#E1E1E1"/>
</linearGradient>
<linearGradient id="paint1_linear" x1="47.1142" y1="15.4622" x2="49.2902" y2="13.4562" gradientUnits="userSpaceOnUse">
<stop stop-color="white"/>
<stop offset="1" stop-color="#C8C8C8"/>
</linearGradient>
<linearGradient id="paint2_linear" x1="28.118" y1="26.062" x2="21.41" y2="5.41604" gradientUnits="userSpaceOnUse">
<stop offset="0.127" stop-color="#8A0000"/>
<stop offset="0.244" stop-color="#900000" stop-opacity="0.999"/>
<stop offset="0.398" stop-color="#A00000" stop-opacity="0.999"/>
<stop offset="0.573" stop-color="#BC0000" stop-opacity="0.998"/>
<stop offset="0.761" stop-color="#E20000" stop-opacity="0.997"/>
<stop offset="0.867" stop-color="#FA0000" stop-opacity="0.996"/>
</linearGradient>
<linearGradient id="paint3_linear" x1="28.4" y1="26.8802" x2="21.162" y2="4.59823" gradientUnits="userSpaceOnUse">
<stop offset="0.315" stop-color="#5E0000"/>
<stop offset="0.444" stop-color="#830000" stop-opacity="0.999"/>
<stop offset="0.618" stop-color="#AE0000" stop-opacity="0.998"/>
<stop offset="0.775" stop-color="#CD0000" stop-opacity="0.997"/>
<stop offset="0.908" stop-color="#E00000" stop-opacity="0.996"/>
<stop offset="1" stop-color="#E70000" stop-opacity="0.996"/>
</linearGradient>
</defs>
</svg>
