<svg width="64" height="64" viewBox="0 0 64 64" fill="none" xmlns="http://www.w3.org/2000/svg">
<path d="M37.8603 34.6L33.9543 6H33.6623C26.8432 6.01159 20.3061 8.7223 15.4798 13.5396C10.6535 18.3569 7.93056 24.889 7.90625 31.708V32L37.8603 34.6Z" fill="#ED6C47"/>
<path d="M34.2456 6H33.9536V32L46.9756 37.2L59.9996 32V31.708C59.9753 24.8893 57.2527 18.3576 52.4268 13.5403C47.601 8.72306 41.0643 6.01211 34.2456 6Z" fill="#FF8F6B"/>
<path d="M60.0003 32V32.286C59.9749 39.1059 57.2513 45.6386 52.4245 50.4568C47.5978 55.2749 41.0602 57.9868 34.2403 58H33.6663C26.8466 57.9858 20.3097 55.2735 15.4831 50.4556C10.6566 45.6377 7.93265 39.1056 7.90625 32.286V32H60.0003Z" fill="#D35230"/>
<path opacity="0.1" d="M35.2563 18.7779V46.5199C35.2527 46.9919 35.11 47.4524 34.846 47.8437C34.582 48.235 34.2086 48.5398 33.7723 48.7199C33.4874 48.8399 33.1814 48.9018 32.8723 48.9019H14.0543C13.6892 48.4831 13.3415 48.0494 13.0123 47.6019C9.69484 43.1859 7.9028 37.8112 7.90627 32.2879V31.7159C7.89998 26.7338 9.35844 21.8597 12.1003 17.6999C12.3846 17.2531 12.6889 16.8193 13.0123 16.3999H32.8723C33.5022 16.4041 34.1053 16.6558 34.5513 17.1007C34.9973 17.5455 35.2505 18.148 35.2563 18.7779Z" fill="black"/>
<path opacity="0.2" d="M33.9543 20.0802V47.8222C33.9542 48.13 33.8923 48.4347 33.7723 48.7182C33.5918 49.1541 33.2869 49.5272 32.8956 49.7908C32.5043 50.0543 32.044 50.1968 31.5723 50.2002H15.2403C14.8283 49.7815 14.4329 49.3482 14.0543 48.9002C13.6892 48.4814 13.3415 48.0477 13.0123 47.6002C9.69484 43.1842 7.9028 37.8095 7.90627 32.2862V31.7142C7.90037 26.7327 9.35882 21.8594 12.1003 17.7002H31.5703C32.2006 17.7044 32.8039 17.9563 33.25 18.4017C33.6961 18.847 33.949 19.4499 33.9543 20.0802Z" fill="black"/>
<path opacity="0.2" d="M33.9543 20.0802V45.2222C33.9485 45.8521 33.6953 46.4546 33.2493 46.8994C32.8033 47.3443 32.2002 47.596 31.5703 47.6002H13.0123C9.69484 43.1842 7.9028 37.8095 7.90627 32.2862V31.7142C7.90037 26.7327 9.35882 21.8594 12.1003 17.7002H31.5703C32.2006 17.7044 32.8039 17.9563 33.25 18.4017C33.6961 18.847 33.949 19.4499 33.9543 20.0802Z" fill="black"/>
<path opacity="0.2" d="M32.6523 20.0802V45.2222C32.6465 45.8521 32.3933 46.4546 31.9473 46.8994C31.5013 47.3443 30.8982 47.596 30.2683 47.6002H13.0123C9.69484 43.1842 7.9028 37.8095 7.90627 32.2862V31.7142C7.90037 26.7327 9.35882 21.8594 12.1003 17.7002H30.2683C30.8986 17.7044 31.5019 17.9563 31.948 18.4017C32.3941 18.847 32.647 19.4499 32.6523 20.0802Z" fill="black"/>
<path d="M6.388 17.7002H30.264C30.8965 17.6997 31.5033 17.9503 31.951 18.3969C32.3988 18.8436 32.6509 19.4497 32.652 20.0822V43.9182C32.6509 44.5507 32.3988 45.1568 31.951 45.6035C31.5033 46.0501 30.8965 46.3007 30.264 46.3002H6.388C6.07476 46.3007 5.76449 46.2395 5.47492 46.1201C5.18534 46.0006 4.92215 45.8253 4.70038 45.6041C4.47861 45.3828 4.3026 45.1201 4.18243 44.8308C4.06225 44.5416 4.00026 44.2314 4 43.9182V20.0822C4.00026 19.769 4.06225 19.4588 4.18243 19.1696C4.3026 18.8803 4.47861 18.6175 4.70038 18.3963C4.92215 18.1751 5.18534 17.9998 5.47492 17.8803C5.76449 17.7609 6.07476 17.6997 6.388 17.7002Z" fill="url(#paint0_linear)"/>
<path d="M18.5857 24.0558C20.14 23.9513 21.6809 24.4021 22.9337 25.3278C23.4489 25.7864 23.8528 26.3563 24.1148 26.9943C24.3767 27.6323 24.4899 28.3216 24.4457 29.0098C24.4632 29.9794 24.2045 30.9339 23.6997 31.7618C23.1891 32.5766 22.4535 33.2261 21.5817 33.6318C20.5857 34.0937 19.4974 34.3222 18.3997 34.2998H15.3737V39.8998H12.2817V24.0558H18.5857ZM15.3717 31.8798H18.0337C18.8778 31.9407 19.7149 31.691 20.3877 31.1778C20.6629 30.9154 20.8771 30.5959 21.0153 30.2417C21.1535 29.8875 21.2124 29.5073 21.1877 29.1278C21.1877 27.3825 20.1711 26.5092 18.1377 26.5078H15.3717V31.8798Z" fill="white"/>
<defs>
<linearGradient id="paint0_linear" x1="8.988" y1="15.8282" x2="27.664" y2="48.1722" gradientUnits="userSpaceOnUse">
<stop stop-color="#CA4C28"/>
<stop offset="0.5" stop-color="#C5401E"/>
<stop offset="1" stop-color="#B62F14"/>
</linearGradient>
</defs>
</svg>
