<svg width="20" height="18" viewBox="0 0 20 18" fill="none" xmlns="http://www.w3.org/2000/svg">
<path d="M4.74707 0.999979H8.21107C8.40109 1.00004 8.58401 1.07222 8.72286 1.20195C8.86171 1.33168 8.94615 1.50928 8.9591 1.69886C8.97205 1.88844 8.91256 2.07587 8.79264 2.22328C8.67272 2.37068 8.50132 2.46708 8.31307 2.49298L8.21107 2.49998H4.74707C4.17694 2.49991 3.62805 2.71627 3.21132 3.10535C2.79458 3.49442 2.54109 4.02719 2.50207 4.59598L2.49707 4.74998V14.25C2.497 14.8201 2.71337 15.369 3.10244 15.7857C3.49151 16.2025 4.02428 16.456 4.59307 16.495L4.74707 16.5H14.2471C14.8172 16.5 15.3661 16.2837 15.7828 15.8946C16.1996 15.5055 16.453 14.9728 16.4921 14.404L16.4971 14.25V13.752C16.4954 13.5607 16.5669 13.376 16.6969 13.2357C16.8269 13.0954 17.0056 13.01 17.1965 12.9971C17.3873 12.9842 17.5759 13.0447 17.7236 13.1663C17.8713 13.2878 17.967 13.4612 17.9911 13.651L17.9971 13.752V14.25C17.9972 15.21 17.6291 16.1334 16.9686 16.8302C16.3082 17.5269 15.4057 17.9438 14.4471 17.995L14.2471 18H4.74707C3.78707 18.0001 2.8636 17.632 2.16688 16.9715C1.47017 16.3111 1.05327 15.4086 1.00207 14.45L0.99707 14.25V4.74998C0.996984 3.78998 1.36507 2.86651 2.02551 2.16979C2.68595 1.47308 3.58844 1.05618 4.54707 1.00498L4.74707 0.999979H8.21107H4.74707ZM12.5001 3.54398V0.749979C12.5 0.612024 12.538 0.476719 12.6098 0.358946C12.6816 0.241174 12.7846 0.145497 12.9073 0.0824416C13.03 0.0193858 13.1677 -0.00860595 13.3053 0.00154522C13.4428 0.0116964 13.575 0.0595972 13.6871 0.139979L13.7691 0.208979L19.7631 5.95898C20.0431 6.22698 20.0691 6.65898 19.8401 6.95598L19.7631 7.04098L13.7691 12.793C13.6696 12.8886 13.5457 12.9549 13.411 12.9846C13.2763 13.0143 13.136 13.0063 13.0055 12.9614C12.8751 12.9165 12.7595 12.8366 12.6716 12.7303C12.5836 12.624 12.5267 12.4955 12.5071 12.359L12.5001 12.252V9.44998L12.1791 9.44398C9.52107 9.43598 7.24907 10.527 5.31407 12.745C4.81807 13.313 3.88907 12.877 4.00807 12.133C4.83507 6.99298 7.60807 4.08798 12.1981 3.57398L12.5001 3.54398V0.749979V3.54398Z" fill="#0078D4"/>
</svg>
