<svg width="24" height="24" viewBox="0 0 24 24" fill="none" xmlns="http://www.w3.org/2000/svg">
<rect x="0.4" y="0.4" width="23.2" height="23.2" rx="11.6" fill="#F9F7F7"/>
<path d="M8.49805 6.66667H10.8074C10.9341 6.66671 11.056 6.71484 11.1486 6.80132C11.2411 6.88781 11.2974 7.00621 11.3061 7.13259C11.3147 7.25898 11.275 7.38393 11.1951 7.48221C11.1151 7.58048 11.0009 7.64474 10.8754 7.66201L10.8074 7.66667H8.49805C8.11796 7.66663 7.75203 7.81087 7.47421 8.07025C7.19639 8.32963 7.02739 8.68481 7.00138 9.06401L6.99805 9.16667V15.5C6.998 15.8801 7.14224 16.246 7.40163 16.5238C7.66101 16.8017 8.01619 16.9707 8.39538 16.9967L8.49805 17H14.8314C15.2115 17.0001 15.5774 16.8558 15.8552 16.5964C16.133 16.337 16.302 15.9819 16.328 15.6027L16.3314 15.5V15.168C16.3303 15.0405 16.3779 14.9174 16.4646 14.8238C16.5513 14.7303 16.6704 14.6734 16.7976 14.6648C16.9249 14.6562 17.0506 14.6965 17.1491 14.7775C17.2475 14.8586 17.3113 14.9742 17.3274 15.1007L17.3314 15.168V15.5C17.3314 16.14 17.086 16.7557 16.6458 17.2201C16.2055 17.6846 15.6038 17.9625 14.9647 17.9967L14.8314 18H8.49805C7.85805 18.0001 7.2424 17.7547 6.77792 17.3144C6.31345 16.8741 6.03551 16.2724 6.00138 15.6333L5.99805 15.5V9.16667C5.99799 8.52667 6.24338 7.91103 6.68367 7.44655C7.12397 6.98207 7.72563 6.70414 8.36471 6.67001L8.49805 6.66667H10.8074H8.49805ZM13.6667 8.36267V6.50001C13.6667 6.40804 13.692 6.31783 13.7399 6.23932C13.7878 6.1608 13.8564 6.09702 13.9382 6.05498C14.02 6.01294 14.1118 5.99428 14.2035 6.00105C14.2952 6.00782 14.3833 6.03975 14.458 6.09334L14.5127 6.13934L18.5087 9.97267C18.6954 10.1513 18.7127 10.4393 18.56 10.6373L18.5087 10.694L14.5127 14.5287C14.4464 14.5924 14.3638 14.6366 14.274 14.6564C14.1842 14.6762 14.0906 14.6709 14.0037 14.641C13.9167 14.6111 13.8397 14.5577 13.7811 14.4869C13.7224 14.416 13.6845 14.3304 13.6714 14.2393L13.6667 14.168V12.3L13.4527 12.296C11.6807 12.2907 10.166 13.018 8.87605 14.4967C8.54538 14.8753 7.92605 14.5847 8.00538 14.0887C8.55671 10.662 10.4054 8.72534 13.4654 8.38267L13.6667 8.36267V6.50001V8.36267Z" fill="#0078D4"/>
<rect x="0.4" y="0.4" width="23.2" height="23.2" rx="11.6" stroke="#54B5FF" stroke-width="0.8"/>
</svg>
