<svg width="64" height="64" viewBox="0 0 64 64" fill="none" xmlns="http://www.w3.org/2000/svg">
<path d="M7.80006 48.05C7.79845 49.1057 8.21483 50.119 8.95819 50.8686C9.70155 51.6181 10.7114 52.0429 11.7671 52.05L25.2311 52.101C26.2868 52.1079 27.2968 52.5326 28.0402 53.2822C28.7836 54.0318 29.1999 55.0453 29.1981 56.101V59.201C29.1999 60.2567 28.7836 61.2702 28.0402 62.0198C27.2968 62.7694 26.2868 63.1941 25.2311 63.201H11.7671C10.7113 63.1941 9.70132 62.7694 8.9579 62.0198C8.21448 61.2702 7.79818 60.2567 7.80006 59.201V48.05Z" fill="#A04567"/>
<path d="M20.8 3.911C19.1824 3.92156 17.6346 4.57187 16.4949 5.71988C15.3551 6.86789 14.716 8.42029 14.717 10.038V53.816C14.716 55.4337 15.3551 56.9861 16.4949 58.1341C17.6346 59.2821 19.1824 59.9324 20.8 59.943H50.117C51.7347 59.9324 53.2825 59.2821 54.4222 58.1341C55.562 56.9861 56.2011 55.4337 56.2 53.816V9.623C56.2011 8.11484 55.6053 6.66754 54.5427 5.59727C53.4801 4.52701 52.0372 3.92077 50.529 3.911H20.8Z" fill="#C6C5C5"/>
<path d="M53.0181 19.177V50.71C53.0192 52.3278 52.3801 53.8803 51.2404 55.0285C50.1006 56.1766 48.5529 56.8272 46.9351 56.838H17.6201C16.0023 56.8274 14.4544 56.177 13.3146 55.0288C12.1748 53.8805 11.5358 52.3279 11.5371 50.71V6.933C11.536 5.31529 12.1752 3.76289 13.3149 2.61488C14.4547 1.46688 16.0024 0.816567 17.6201 0.806H34.7801L53.0181 19.177Z" fill="#E2E2E2"/>
<path d="M7.80006 57.84C7.79818 56.7843 8.21448 55.7708 8.9579 55.0212C9.70132 54.2716 10.7113 53.8469 11.7671 53.84L41.8521 53.789C42.9077 53.7819 43.9175 53.3571 44.6609 52.6076C45.4043 51.858 45.8207 50.8447 45.819 49.789V41.5C45.8207 40.4443 45.4043 39.431 44.6609 38.6814C43.9175 37.9319 42.9077 37.5071 41.8521 37.5H11.7671C10.7114 37.5071 9.70155 37.9319 8.95819 38.6814C8.21483 39.431 7.79845 40.4443 7.80006 41.5V57.84Z" fill="#EB7999"/>
<path d="M14.7681 48.047H16.4681V49.734H14.7681V48.047Z" fill="white"/>
<path d="M24.1099 41.419V42.891H21.6399V49.734H19.8999V42.891H17.4229V41.419H24.1099Z" fill="white"/>
<path d="M26.4369 49.734H24.4319L27.0859 45.5L24.5599 41.419H26.6209L28.0939 44.127L29.6059 41.419H31.5999L29.0739 45.43L31.7569 49.73H29.6569L28.0939 46.9L26.4369 49.734Z" fill="white"/>
<path d="M38.7659 41.419V42.891H36.2999V49.734H34.5599V42.891H32.0789V41.419H38.7659Z" fill="white"/>
<path d="M53.018 19.177H40.451C38.943 19.167 37.5002 18.5606 36.4376 17.4904C35.3751 16.4202 34.7792 14.9731 34.78 13.465V0.806L53.018 19.177Z" fill="white"/>
<path d="M43.2348 33.142H35.4908C35.29 33.1492 35.0997 33.2341 34.9602 33.3787C34.8207 33.5234 34.7427 33.7165 34.7427 33.9175C34.7427 34.1185 34.8207 34.3116 34.9602 34.4563C35.0997 34.6009 35.29 34.6858 35.4908 34.693H43.2348C43.4357 34.6858 43.6259 34.6009 43.7654 34.4563C43.905 34.3116 43.983 34.1185 43.983 33.9175C43.983 33.7165 43.905 33.5234 43.7654 33.3787C43.6259 33.2341 43.4357 33.1492 43.2348 33.142Z" fill="#EB7999"/>
<path d="M43.235 27.666H19.764C19.5632 27.6732 19.3729 27.7581 19.2334 27.9027C19.0939 28.0474 19.0159 28.2405 19.0159 28.4415C19.0159 28.6425 19.0939 28.8356 19.2334 28.9803C19.3729 29.1249 19.5632 29.2098 19.764 29.217H43.235C43.4359 29.2098 43.6261 29.1249 43.7656 28.9803C43.9052 28.8356 43.9832 28.6425 43.9832 28.4415C43.9832 28.2405 43.9052 28.0474 43.7656 27.9027C43.6261 27.7581 43.4359 27.6732 43.235 27.666V27.666Z" fill="#EB7999"/>
<path d="M43.235 22.191H28.9C28.6942 22.191 28.4968 22.2728 28.3513 22.4183C28.2058 22.5638 28.124 22.7612 28.124 22.967C28.124 23.1728 28.2058 23.3702 28.3513 23.5157C28.4968 23.6612 28.6942 23.743 28.9 23.743H43.235C43.4408 23.743 43.6382 23.6612 43.7837 23.5157C43.9293 23.3702 44.011 23.1728 44.011 22.967C44.011 22.7612 43.9293 22.5638 43.7837 22.4183C43.6382 22.2728 43.4408 22.191 43.235 22.191V22.191Z" fill="#EB7999"/>
<path d="M31.4998 16.731H19.7638C19.5629 16.7382 19.3727 16.8231 19.2332 16.9677C19.0936 17.1124 19.0156 17.3055 19.0156 17.5065C19.0156 17.7075 19.0936 17.9006 19.2332 18.0453C19.3727 18.1899 19.5629 18.2748 19.7638 18.282H31.4998C31.7006 18.2748 31.8909 18.1899 32.0304 18.0453C32.1699 17.9006 32.2479 17.7075 32.2479 17.5065C32.2479 17.3055 32.1699 17.1124 32.0304 16.9677C31.8909 16.8231 31.7006 16.7382 31.4998 16.731V16.731Z" fill="#EB7999"/>
<path d="M30.483 33.142H19.764C19.5632 33.1492 19.3729 33.2341 19.2334 33.3787C19.0939 33.5234 19.0159 33.7165 19.0159 33.9175C19.0159 34.1185 19.0939 34.3116 19.2334 34.4563C19.3729 34.6009 19.5632 34.6858 19.764 34.693H30.483C30.6839 34.6858 30.8741 34.6009 31.0136 34.4563C31.1532 34.3116 31.2312 34.1185 31.2312 33.9175C31.2312 33.7165 31.1532 33.5234 31.0136 33.3787C30.8741 33.2341 30.6839 33.1492 30.483 33.142V33.142Z" fill="#EB7999"/>
<path d="M25.535 22.191H19.764C19.5582 22.191 19.3608 22.2728 19.2153 22.4183C19.0698 22.5638 18.988 22.7612 18.988 22.967C18.988 23.1728 19.0698 23.3702 19.2153 23.5157C19.3608 23.6612 19.5582 23.743 19.764 23.743H25.535C25.7408 23.743 25.9382 23.6612 26.0837 23.5157C26.2293 23.3702 26.311 23.1728 26.311 22.967C26.311 22.7612 26.2293 22.5638 26.0837 22.4183C25.9382 22.2728 25.7408 22.191 25.535 22.191V22.191Z" fill="#EB7999"/>
</svg>
