<svg width="64" height="64" viewBox="0 0 64 64" fill="none" xmlns="http://www.w3.org/2000/svg">
<path fill-rule="evenodd" clip-rule="evenodd" d="M57.562 8.81013H37.302V4.03613L4 9.17613V54.2301L37.302 59.9661V52.8901H57.562C58.1756 52.9212 58.7765 52.7081 59.2334 52.2973C59.6903 51.8865 59.9659 51.3116 60 50.6981V11.0001C59.9654 10.3871 59.6895 9.8126 59.2327 9.40225C58.7759 8.99191 58.1753 8.77904 57.562 8.81013ZM57.882 51.0621H37.234L37.2 47.2841H42.174V42.8841H37.162L37.138 40.2841H42.174V35.8841H37.1L37.076 33.2841H42.174V28.8841H37.06V26.2841H42.174V21.8841H37.06V19.2841H42.174V14.8841H37.06V10.8841H57.882V51.0621Z" fill="#20744A"/>
<path d="M44.9736 14.8779H53.6196V19.2779H44.9736V14.8779Z" fill="#20744A"/>
<path d="M44.9736 21.8799H53.6196V26.2799H44.9736V21.8799Z" fill="#20744A"/>
<path d="M44.9736 28.8818H53.6196V33.2818H44.9736V28.8818Z" fill="#20744A"/>
<path d="M44.9736 35.8838H53.6196V40.2838H44.9736V35.8838Z" fill="#20744A"/>
<path d="M44.9736 42.8862H53.6196V47.2862H44.9736V42.8862Z" fill="#20744A"/>
<path fill-rule="evenodd" clip-rule="evenodd" d="M12.6942 21.3459L16.9862 21.0999L19.6842 28.5178L22.8722 20.7939L27.1642 20.5479L21.9522 31.0799L27.1642 41.6378L22.6262 41.3319L19.5622 33.2838L16.4962 41.0259L12.3262 40.6579L17.1702 31.3319L12.6942 21.3459Z" fill="white"/>
</svg>
